<svg id="Layer_1" data-name="Layer 1" xmlns="http://www.w3.org/2000/svg" width="32" height="28.73" viewBox="0 0 32 28.73"><defs><style>.cls-1{fill:#fb82a7;}</style></defs><title>search</title><path class="cls-1" d="M16.32,28.73,2.23,15.66A9.63,9.63,0,0,1,0,9.5,9.52,9.52,0,0,1,16,2.55a9.52,9.52,0,0,1,16,7,9.63,9.63,0,0,1-2.23,6.16l-.1.1-11,10-1.34-1.48,11-9.94A7.75,7.75,0,0,0,30,9.5,7.5,7.5,0,0,0,22.5,2a7.37,7.37,0,0,0-5.73,2.65l-.77.9-.77-.91A7.51,7.51,0,0,0,2,9.5a7.74,7.74,0,0,0,1.73,4.83l14,12.94-1.36,1.46Z"/><path class="cls-1" d="M15.21,22.25,5.14,12.89A5.63,5.63,0,0,1,4,9.5,5.5,5.5,0,0,1,9.5,4V6A3.5,3.5,0,0,0,6,9.5a3.73,3.73,0,0,0,.68,2.11l9.89,9.17ZM19.44,8,17.69,7a5.51,5.51,0,0,1,7.47-2.16l-1,1.75A3.43,3.43,0,0,0,19.44,8Z"/></svg>